<?xml version="1.0" encoding="UTF-8"?>
<svg width="475px" height="403px" viewBox="0 0 475 403" version="1.1" xmlns="http://www.w3.org/2000/svg" xmlns:xlink="http://www.w3.org/1999/xlink">
    <!-- Generator: Sketch 55.1 (78136) - https://sketchapp.com -->
    <title>check</title>
    <desc>Created with Sketch.</desc>
    <g id="Page-2" stroke="none" stroke-width="1" fill="none" fill-rule="evenodd">
        <g id="Artboard" transform="translate(-455.000000, -400.000000)" fill-rule="nonzero">
            <g id="check" transform="translate(455.000000, 400.000000)">
                <path d="M396.283,221.097 C395.143,220.522 394.001,220.235 392.85,220.235 C390.372,220.235 388.189,221.186 386.287,223.092 L368.013,241.363 C366.305,243.078 365.447,245.169 365.447,247.646 L365.447,320.159 C365.447,332.724 360.984,343.473 352.032,352.423 C343.087,361.368 332.331,365.841 319.768,365.841 L82.226,365.841 C69.662,365.841 58.907,361.368 49.962,352.423 C41.015,343.474 36.544,332.725 36.544,320.159 L36.544,82.622 C36.544,70.06 41.015,59.306 49.962,50.358 C58.907,41.412 69.662,36.94 82.226,36.94 L319.77,36.94 C323.958,36.94 328.24,37.511 332.617,38.654 C333.76,39.032 334.616,39.225 335.18,39.225 C337.658,39.225 339.848,38.276 341.75,36.373 L355.74,22.383 C358.022,20.102 358.882,17.34 358.306,14.107 C357.735,11.061 356.02,8.871 353.165,7.54 C342.893,2.788 331.753,0.401 319.762,0.401 L82.226,0.401 C59.576,0.401 40.208,8.443 24.124,24.527 C8.042,40.613 0,59.978 0,82.629 L0,320.172 C0,342.819 8.042,362.186 24.125,378.27 C40.209,394.358 59.577,402.4 82.227,402.4 L319.768,402.4 C342.415,402.4 361.785,394.358 377.869,378.27 C393.954,362.186 402.003,342.82 402.003,320.172 L402.003,229.375 C402.003,225.381 400.088,222.623 396.283,221.097 Z" id="Path" fill="#F7B500"></path>
                <path d="M467.95,57.216 L436.541,25.807 C431.973,21.24 426.545,18.956 420.262,18.956 C413.987,18.956 408.555,21.24 403.991,25.807 L219.265,210.532 L144.181,135.443 C139.612,130.873 134.186,128.592 127.907,128.592 C121.627,128.592 116.203,130.873 111.633,135.443 L80.228,166.848 C75.66,171.416 73.374,176.842 73.374,183.125 C73.374,189.405 75.66,194.829 80.228,199.399 L202.995,322.166 C207.564,326.737 212.99,329.017 219.269,329.017 C225.548,329.017 230.973,326.738 235.543,322.166 L467.947,89.763 C472.512,85.196 474.801,79.769 474.801,73.489 C474.801,67.209 472.518,61.783 467.95,57.216 Z" id="Path" fill="#040404"></path>
            </g>
        </g>
    </g>
</svg>