<svg height="512" viewBox="0 0 64 64" width="512" xmlns="http://www.w3.org/2000/svg" xmlns:xlink="http://www.w3.org/1999/xlink"><linearGradient id="New_Gradient_Swatch_1" gradientUnits="userSpaceOnUse" x1="32" x2="32" y1="8.462" y2="55.216"><stop offset="0" stop-color="#fff33b"/><stop offset=".014" stop-color="#fee72e"/><stop offset=".042" stop-color="#fed51b"/><stop offset=".07" stop-color="#fdca10"/><stop offset=".1" stop-color="#fdc70c"/><stop offset=".4" stop-color="#f3903f"/><stop offset=".8" stop-color="#ed683c"/><stop offset="1" stop-color="#e93e3a"/></linearGradient><linearGradient id="New_Gradient_Swatch_1-2" x1="36" x2="36" xlink:href="#New_Gradient_Swatch_1" y1="8.462" y2="55.216"/><linearGradient id="New_Gradient_Swatch_1-3" x1="18" x2="18" xlink:href="#New_Gradient_Swatch_1" y1="8.462" y2="55.216"/><linearGradient id="New_Gradient_Swatch_1-5" x1="22" x2="22" xlink:href="#New_Gradient_Swatch_1" y1="8.462" y2="55.216"/><g id="Mail-6" data-name="Mail"><path d="m57 10h-50a5.006 5.006 0 0 0 -5 5v34a5.006 5.006 0 0 0 5 5h50a5.006 5.006 0 0 0 5-5v-34a5.006 5.006 0 0 0 -5-5zm-50 2h50a3 3 0 0 1 3 3v.46l-28 18.345-28-18.345v-.46a3 3 0 0 1 3-3zm53 5.851v27.383l-21.817-13.09zm-34.183 14.293-21.817 13.09v-27.383zm31.183 19.856h-50a3 3 0 0 1 -3-3v-1.434l23.675-14.2 3.777 2.474a1 1 0 0 0 1.1 0l3.777-2.474 23.671 14.2v1.434a3 3 0 0 1 -3 3z" fill="url(#New_Gradient_Swatch_1)"/><path d="m22 48h28v2h-28z" fill="url(#New_Gradient_Swatch_1-2)"/><path d="m16 48h4v2h-4z" fill="url(#New_Gradient_Swatch_1-3)"/><path d="m26 44h20v2h-20z" fill="url(#New_Gradient_Swatch_1-2)"/><path d="m20 44h4v2h-4z" fill="url(#New_Gradient_Swatch_1-5)"/></g></svg>