<svg xmlns="http://www.w3.org/2000/svg" viewBox="0 0 1000 1000"><defs><style>.cls-1{fill:#010101;}.cls-2{fill:#000;}</style></defs><title>Odoo-Developer-Outsourcing</title><g id="Layer_6" data-name="Layer 6"><path class="cls-1" d="M870.11,554.82H854.48a98.15,98.15,0,0,0,20.36-59.94V467.54a98.69,98.69,0,1,0-197.37,0v21.25L531.73,343.05a29.2,29.2,0,0,0-30.66-6.83,29.2,29.2,0,0,0-30.66,6.83L324.67,488.79V467.54a98.69,98.69,0,0,0-197.38,0v27.34a98.15,98.15,0,0,0,20.37,59.94H132A127,127,0,0,0,5.13,681.71V938.39a19.38,19.38,0,0,0,19.38,19.38h81.84a19.64,19.64,0,0,0,5.57-.82,19.75,19.75,0,0,0,5.57.82h217a19.38,19.38,0,0,0,19.38-19.38V872.53a19.38,19.38,0,0,0-38.75,0V919H136.87V698.28a19.38,19.38,0,0,0-38.75,0V919H43.88V681.71A88.24,88.24,0,0,1,132,593.57H266.66a19.32,19.32,0,0,0,13.66-5.64l0,0L481.58,386.67a213.28,213.28,0,0,1-36.39,112.49L318.4,687.46a19.34,19.34,0,0,0-3.31,10.82v21.21a19.38,19.38,0,0,0,38.75,0v-15.3L477.32,520.8a253.1,253.1,0,0,0,23.75-44.18,253.72,253.72,0,0,0,23.74,44.18L648.3,704.19v234.2a19.38,19.38,0,0,0,19.37,19.38h217a19.69,19.69,0,0,0,5.57-.82,19.64,19.64,0,0,0,5.57.82h81.85A19.38,19.38,0,0,0,997,938.39V681.71A127,127,0,0,0,870.11,554.82ZM285.92,494.88a59.94,59.94,0,0,1-119.88,0V467.54a59.94,59.94,0,1,1,119.88,0Zm430.29-27.34a59.95,59.95,0,1,1,119.89,0v27.34a59.95,59.95,0,0,1-119.89,0ZM958.26,919H904V775.67a19.37,19.37,0,1,0-38.74,0V919H687V698.28a19.39,19.39,0,0,0-3.3-10.82L557,499.17a213.25,213.25,0,0,1-36.39-112.5L721.77,587.89c.26.26.5.47.73.67a19.32,19.32,0,0,0,13,5H870.11a88.25,88.25,0,0,1,88.15,88.14V919Z"/><path class="cls-1" d="M898.33,684.58A19.35,19.35,0,1,0,904,698.27,19.46,19.46,0,0,0,898.33,684.58Z"/><path class="cls-1" d="M348.16,787.15a19.36,19.36,0,1,0,5.68,13.7A19.52,19.52,0,0,0,348.16,787.15Z"/><path class="cls-2" d="M747.66,147.87a19.21,19.21,0,0,0-27.13-1.2L590.38,265.73l-83.11-72a19.19,19.19,0,0,0-25.15,0L338.71,317.91a19.21,19.21,0,1,0,25.14,29L494.69,233.63,578.15,306a19.2,19.2,0,0,0,25.54-.35L746.46,175A19.22,19.22,0,0,0,747.66,147.87Z"/><path class="cls-2" d="M814.35,84.57a19.23,19.23,0,0,0-17.18-5.34L688.33,99.72a19.21,19.21,0,0,0-10,32.46L766,219.89A19.21,19.21,0,0,0,798.44,210l21.13-108.2A19.22,19.22,0,0,0,814.35,84.57ZM767.64,167.2l-36.46-36.46,45.25-8.52Z"/></g></svg>