<svg xmlns="http://www.w3.org/2000/svg" viewBox="0 0 1000 1000"><defs><style>.cls-1{fill:#010101;}.cls-2{fill:#000;}</style></defs><title>Odoo-Community-Apps</title><g id="Layer_3" data-name="Layer 3"><path class="cls-1" d="M60.63,299.32V143.88a24.55,24.55,0,0,1,24.55-24.55H916.12a24.56,24.56,0,0,1,24.55,24.55V737.41A24.55,24.55,0,0,1,916.12,762H619.35a24.55,24.55,0,0,1,0-49.1H891.57V168.43H109.73v130.9a24.55,24.55,0,0,1-49.1,0ZM975.45,831.57H25.84a24.55,24.55,0,0,0,0,49.1H975.45a24.55,24.55,0,0,0,0-49.1ZM85.18,441.42A24.55,24.55,0,0,0,60.63,466V737.41A24.55,24.55,0,0,0,85.18,762H381.94a24.55,24.55,0,0,0,0-49.1H109.73V466A24.55,24.55,0,0,0,85.18,441.42ZM500.65,710.27a27.14,27.14,0,1,1-27.15,27.14,27.14,27.14,0,0,1,27.15-27.14Z"/><rect class="cls-2" x="238.61" y="271.8" width="205.89" height="56.76"/><rect class="cls-2" x="238.61" y="421.81" width="205.89" height="56.76"/><rect class="cls-2" x="238.61" y="571.82" width="205.89" height="56.76"/><rect class="cls-2" x="558.61" y="231.8" width="205.89" height="56.76"/><rect class="cls-2" x="558.61" y="341.81" width="205.89" height="56.76"/><rect class="cls-2" x="558.61" y="461.82" width="205.89" height="56.76"/><rect class="cls-2" x="558.61" y="581.8" width="205.89" height="56.76"/></g></svg>