<svg xmlns="http://www.w3.org/2000/svg" viewBox="0 0 1000 1000"><defs><style>.cls-1{fill:#010101;}.cls-2{fill:#000;}</style></defs><title>Odoo-Support-Maintenance</title><g id="Layer_4" data-name="Layer 4"><path class="cls-1" d="M435.7,320.68A49.37,49.37,0,0,0,386.39,370h32.88a16.44,16.44,0,1,1,32.87,0H485A49.37,49.37,0,0,0,435.7,320.68Z"/><path class="cls-1" d="M567.2,320.68A49.37,49.37,0,0,0,517.89,370h32.87a16.44,16.44,0,1,1,32.87,0h32.88A49.37,49.37,0,0,0,567.2,320.68Z"/><path class="cls-2" d="M501.45,764.46a65.75,65.75,0,1,0,65.75,65.75A65.82,65.82,0,0,0,501.45,764.46Zm0,98.62a32.87,32.87,0,1,1,32.87-32.87A32.9,32.9,0,0,1,501.45,863.08Z"/><path class="cls-1" d="M895.93,961.7V748c0-135.95-110.6-246.55-246.55-246.55h-17.9A199.27,199.27,0,0,0,648.05,485h17.77A82.28,82.28,0,0,0,748,402.86v-29a73.84,73.84,0,0,0-.2-123C745.62,116.83,636.05,8.38,501.45,8.38S257.28,116.83,255.1,250.9A73.92,73.92,0,0,0,296,386.42h11.2a196.85,196.85,0,0,0,64.25,115.06H353.52C217.57,501.48,107,612.08,107,748V961.7H8.35v32.88h986.2V961.7ZM715.13,402.86a49.23,49.23,0,0,1-42.72,48.64,195.55,195.55,0,0,0,23.31-65.08h11.19a69.77,69.77,0,0,0,8.22-.84ZM748,312.46a41.14,41.14,0,0,1-41.09,41.09h-8.22V271.37h8.22A41.14,41.14,0,0,1,748,312.46ZM304.21,353.55H296a41.09,41.09,0,0,1,0-82.18h8.22ZM296,238.49a70.55,70.55,0,0,0-7.43.76c8.09-110.5,100.37-198,212.89-198s204.8,87.5,212.89,198a70,70,0,0,0-7.43-.76H695.72C680,145.36,599,74.13,501.45,74.13S322.9,145.36,307.19,238.49ZM665.8,271c-118.62-4.18-197.22-52.68-197.22-98.21a16.44,16.44,0,0,0-32.88,0c0,41.07-42.47,75.11-97.66,81.14C346.8,171.45,416.74,107,501.45,107,591.93,107,665.57,180.52,665.8,271ZM337.08,353.55V286.88C388.42,282.43,432,257.67,453.72,223c34.38,45.56,114.74,77.63,212.1,80.9v49.64a163.34,163.34,0,0,1-33.19,98.62H501.45V485h98.19a163.49,163.49,0,0,1-166,18.08C376.81,477.25,337.08,420,337.08,353.55ZM450.65,543.92a191.29,191.29,0,0,0,101.61,0L501.45,645.53Zm24.21,121.93h-29l-65.74-131.5h29Zm118.93-131.5h29L557,665.85h-29ZM189.15,748V961.7h-49.3V748c0-114.48,90.56-207.94,203.76-213.17l65.5,131H271.34A82.27,82.27,0,0,0,189.15,748ZM780.87,961.7H222V748a49.37,49.37,0,0,1,49.31-49.31H731.56A49.37,49.37,0,0,1,780.87,748Zm82.19,0H813.75V748a82.27,82.27,0,0,0-82.19-82.18H593.79l65.5-131c113.2,5.23,203.77,98.69,203.77,213.17Z"/><rect class="cls-2" x="715.13" y="813.77" width="32.87" height="115.06"/><rect class="cls-2" x="715.13" y="748.03" width="32.87" height="32.87"/><rect class="cls-2" x="863.06" y="156.31" width="32.87" height="32.87"/><rect class="cls-2" x="863.06" y="222.06" width="32.87" height="32.87"/><rect class="cls-2" x="863.06" y="287.8" width="32.87" height="32.87"/><rect class="cls-2" x="106.97" y="353.55" width="32.87" height="32.87"/><rect class="cls-2" x="106.97" y="419.3" width="32.87" height="32.87"/><rect class="cls-2" x="106.97" y="485.04" width="32.87" height="32.87"/></g></svg>