<svg xmlns="http://www.w3.org/2000/svg" viewBox="0 0 1000 1000"><defs><style>.cls-1{fill:#010101;}.cls-2{fill:#000;}</style></defs><title>Odoo-Customization</title><g id="Layer_2" data-name="Layer 2"><g id="surface1"><path class="cls-1" d="M79.67,839.4h32.44V807H79.67a32.43,32.43,0,0,1-32.43-32.44V125.84A32.43,32.43,0,0,1,79.67,93.4H793.24a32.43,32.43,0,0,1,32.43,32.44v32.43h32.44V125.84A64.88,64.88,0,0,0,793.24,61H79.67A64.88,64.88,0,0,0,14.8,125.84V774.53A64.87,64.87,0,0,0,79.67,839.4Z"/><path class="cls-1" d="M79.67,125.84h32.44v32.43H79.67Z"/><path class="cls-1" d="M144.54,125.84H177v32.43H144.54Z"/><path class="cls-1" d="M209.41,125.84h32.44v32.43H209.41Z"/><path class="cls-1" d="M144.54,904.27a64.87,64.87,0,0,0,64.87,64.87H923a64.87,64.87,0,0,0,64.87-64.87V255.58A64.87,64.87,0,0,0,923,190.71H209.41a64.87,64.87,0,0,0-64.87,64.87ZM177,255.58a32.43,32.43,0,0,1,32.43-32.44H923a32.43,32.43,0,0,1,32.43,32.44V904.27A32.43,32.43,0,0,1,923,936.71H209.41A32.43,32.43,0,0,1,177,904.27Z"/><path class="cls-1" d="M209.41,255.58h32.44V288H209.41Z"/><path class="cls-1" d="M274.28,255.58h32.44V288H274.28Z"/><path class="cls-1" d="M339.15,255.58h32.43V288H339.15Z"/><path class="cls-1" d="M209.41,320.45H923v32.43H209.41Z"/><path class="cls-1" d="M209.41,401.53H339.15V434H209.41Z"/><path class="cls-1" d="M209.41,466.4h97.31v32.44H209.41Z"/><path class="cls-2" d="M566.19,531.27A113.53,113.53,0,1,0,679.72,644.8,113.52,113.52,0,0,0,566.19,531.27Zm0,194.61a81.09,81.09,0,1,1,81.09-81.08A81.08,81.08,0,0,1,566.19,725.88Z"/><path class="cls-2" d="M825.67,596.14a16.21,16.21,0,0,0-16.22-16.21H766.59a204.8,204.8,0,0,0-12.83-31l30.31-30.29a16.22,16.22,0,0,0,0-22.93l-68.81-68.82a16.24,16.24,0,0,0-22.93,0L662,457.21a210.25,210.25,0,0,0-31-12.81V401.53a16.2,16.2,0,0,0-16.21-16.21H517.54a16.21,16.21,0,0,0-16.22,16.21V444.4a210.58,210.58,0,0,0-31,12.81l-30.29-30.3a16.25,16.25,0,0,0-22.94,0l-68.81,68.82a16.24,16.24,0,0,0,0,22.93L378.61,549c-1.36,2.66-2.66,5.32-3.9,8a209.71,209.71,0,0,0-8.91,23H322.93a16.2,16.2,0,0,0-16.21,16.21v97.31a16.2,16.2,0,0,0,16.21,16.21H365.8a205.79,205.79,0,0,0,12.82,31l-30.31,30.29a16.25,16.25,0,0,0,0,22.94l68.81,68.81a16.25,16.25,0,0,0,22.94,0l30.29-30.3a209.5,209.5,0,0,0,31,12.81v42.87a16.21,16.21,0,0,0,16.22,16.21h97.31a16.2,16.2,0,0,0,16.21-16.21V845.19a209.17,209.17,0,0,0,31-12.81l30.29,30.3a16.24,16.24,0,0,0,22.93,0l68.81-68.81a16.23,16.23,0,0,0,0-22.94l-30.31-30.29a204.8,204.8,0,0,0,12.83-31h42.86a16.21,16.21,0,0,0,16.22-16.21Zm-32.43,81.09H754.41a16.23,16.23,0,0,0-15.7,12.16,177.35,177.35,0,0,1-19,45.87,16.21,16.21,0,0,0,2.5,19.7l27.42,27.44-45.87,45.88-27.43-27.44a16.22,16.22,0,0,0-19.71-2.5,177,177,0,0,1-45.86,19A16.21,16.21,0,0,0,598.63,833v38.83H533.76V833a16.21,16.21,0,0,0-12.16-15.69,177,177,0,0,1-45.86-19,16.22,16.22,0,0,0-19.71,2.5l-27.44,27.44L382.73,782.4,410.15,755a16.22,16.22,0,0,0,2.5-19.7,177.38,177.38,0,0,1-19-45.87A16.22,16.22,0,0,0,378,677.23H339.15V612.36H378a16.22,16.22,0,0,0,15.7-12.16,180.41,180.41,0,0,1,19-45.94,16.23,16.23,0,0,0-2.5-19.69l-27.42-27.44,45.86-45.88L456,488.7a16.2,16.2,0,0,0,19.71,2.48,177.29,177.29,0,0,1,45.86-19,16.23,16.23,0,0,0,12.16-15.69V417.75h64.87v38.83a16.21,16.21,0,0,0,12.16,15.69,177,177,0,0,1,45.86,19,16.22,16.22,0,0,0,19.71-2.5l27.43-27.44,45.87,45.88-27.42,27.44a16.21,16.21,0,0,0-2.5,19.7,177.35,177.35,0,0,1,19,45.87,16.23,16.23,0,0,0,15.7,12.16h38.83Z"/><path class="cls-1" d="M825.67,871.84H923v32.43H825.67Z"/></g></g></svg>