<svg id="Layer_1" data-name="Layer 1" xmlns="http://www.w3.org/2000/svg" viewBox="0 0 1000 1000"><defs><style>.cls-1{fill:#010101;}.cls-2{fill:#000;}</style></defs><title>Odoo-Implementation</title><path class="cls-1" d="M335.81,5.77C199,5.77,88.06,116.69,88.06,253.52V435.19A115.77,115.77,0,0,0,203.68,550.81h16.51v-33H203.68a82.67,82.67,0,0,1-82.58-82.58V253.52c0-118.59,96.12-214.71,214.71-214.71s214.71,96.12,214.71,214.71V435.19a82.68,82.68,0,0,1-82.58,82.58H451.42v33h16.52A115.75,115.75,0,0,0,583.55,435.19V253.52C583.55,116.69,472.63,5.77,335.81,5.77Z"/><path class="cls-1" d="M141.59,784.16l12.08-19-27.9-17.7-12.07,19a164.63,164.63,0,0,0,6.82,186.36v43.91h33V947.19a16.49,16.49,0,0,0-3.62-10.32A131.6,131.6,0,0,1,141.59,784.16Z"/><path class="cls-2" d="M913.87,5.77H699.16a82.69,82.69,0,0,0-82.58,82.58V253.52a82.69,82.69,0,0,0,82.58,82.58h33v66.06a16.52,16.52,0,0,0,28.2,11.68l77.74-77.74h75.74a82.68,82.68,0,0,0,82.58-82.58V88.35A82.68,82.68,0,0,0,913.87,5.77Zm49.55,247.75a49.54,49.54,0,0,1-49.55,49.54H831.29a16.56,16.56,0,0,0-11.68,4.84l-54.38,54.39V319.58a16.52,16.52,0,0,0-16.52-16.52H699.16a49.55,49.55,0,0,1-49.55-49.54V88.35a49.55,49.55,0,0,1,49.55-49.54H913.87a49.54,49.54,0,0,1,49.55,49.54Z"/><rect class="cls-2" x="699.16" y="88.35" width="115.61" height="33.03"/><rect class="cls-2" x="847.81" y="88.35" width="66.06" height="33.03"/><rect class="cls-2" x="699.16" y="154.42" width="214.71" height="33.03"/><rect class="cls-2" x="699.16" y="220.48" width="115.61" height="33.03"/><path class="cls-1" d="M557.92,766.47l-12.08-19L518,765.15l12.07,19a131.55,131.55,0,0,1-8.34,152.69,16.54,16.54,0,0,0-3.62,10.32v49.55h33V952.83A164.65,164.65,0,0,0,557.92,766.47Z"/><path class="cls-1" d="M979.94,567.32H831.29A115.61,115.61,0,0,0,715.91,678.23l-49.78,89.61V699.45A115.74,115.74,0,0,0,550.52,583.84H490.15l-.45-.35-.29.35h-38a33,33,0,0,1-33-33V511.94A165.16,165.16,0,0,0,501,369.13V237a165.64,165.64,0,0,0-19.82-78.39,16.52,16.52,0,0,0-21.47-7.1L180.13,283.05A16.49,16.49,0,0,0,170.65,298v71.14a165.11,165.11,0,0,0,82.58,142.81v38.87a33,33,0,0,1-33,33H121.1A115.75,115.75,0,0,0,5.48,699.45V996.74h33V699.45a82.67,82.67,0,0,1,82.58-82.58h52.55L322.38,824.68a16.5,16.5,0,0,0,13.21,6.9h.22A16.52,16.52,0,0,0,349,825l156.9-208.1h44.6a82.69,82.69,0,0,1,82.58,82.58V831.58a16.52,16.52,0,0,0,30.95,8l77.86-140.14h94.68l-161,297.29h37.57l161.1-297.29h6.61A115.74,115.74,0,0,0,996.45,583.84,16.52,16.52,0,0,0,979.94,567.32ZM203.68,369.13V308.48l255-120A132.13,132.13,0,0,1,467.94,237V369.13a132.13,132.13,0,0,1-264.26,0ZM336.15,787.19l-51-71.22H389.83Zm78.67-104.25H261.48L214.2,616.87h6a66.07,66.07,0,0,0,66.07-66.06V526.68a165,165,0,0,0,99.09,0v24.13a66.07,66.07,0,0,0,66.07,66.06h13.21Zm466-16.52H750.36a82.73,82.73,0,0,1,80.93-66.07H961.77A82.72,82.72,0,0,1,880.84,666.42Z"/></svg>