<svg xmlns="http://www.w3.org/2000/svg" viewBox="0 0 1000 1000"><defs><style>.cls-1{fill:#040305;}.cls-2{fill:#000;}</style></defs><title>Odoo-Integration-Services</title><g id="Layer_5" data-name="Layer 5"><path class="cls-1" d="M864.29,359.32V323.43L997,317.26V250.68l-132.71-6.17V216.89H760.52V95.1A50.13,50.13,0,0,0,710.5,45H290.87A50.14,50.14,0,0,0,240.81,95.1V216.89H137.08v27.62L4.41,250.68v66.58l132.67,6.17v35.89H240.82V436.7H137.08v27.56L4.41,470.44V537l132.67,6.2v35.9H240.82v85.67H137.08v27.62L4.41,698.56v66.57l132.67,6.18V807.2H240.82V912.45a50.08,50.08,0,0,0,50.06,50H710.5a50.07,50.07,0,0,0,50-50V807.2H864.29V771.31L997,765.13V698.56l-132.71-6.18V664.76H760.52V579.09H864.29v-35.9L997,537V470.44l-132.71-6.18V436.7H760.52V359.32ZM970.68,723.65V740L838,746.15v34.69h-73.3V691.06H838v26.42ZM838,518.16v34.63h-73.3V463H838v26.44l132.71,6.18V512ZM970.68,275.81v16.35L838,298.34V333h-73.3V243.19H838v26.42ZM710.5,936.13H290.87a23.76,23.76,0,0,1-23.74-23.71V95.1a23.78,23.78,0,0,1,23.74-23.78H710.49A23.77,23.77,0,0,1,734.2,95.1V912.42A23.74,23.74,0,0,1,710.5,936.13ZM30.69,740V723.65l132.71-6.19V691h73.32v89.78H163.4V746.14Zm0-228V495.58L163.4,489.4V463h73.32v89.79H163.4V518.13Zm0-219.8V275.81l132.71-6.18V243.21h73.32V333H163.4V298.36Z"/><circle class="cls-2" cx="332.82" cy="142.97" r="32.5"/></g></svg>