<?xml version="1.0" encoding="iso-8859-1"?>
<!-- Generator: Adobe Illustrator 21.0.0, SVG Export Plug-In . SVG Version: 6.00 Build 0)  -->
<svg version="1.1" id="Capa_1" xmlns="http://www.w3.org/2000/svg" xmlns:xlink="http://www.w3.org/1999/xlink" x="0px" y="0px"
	 viewBox="0 0 966.653 966.653" style="enable-background:new 0 0 966.653 966.653;" xml:space="preserve">
<g>
	<g id="smartphone_1_">
		
			<linearGradient id="SVGID_1_" gradientUnits="userSpaceOnUse" x1="483.3267" y1="995.5009" x2="483.3267" y2="-20.2906" gradientTransform="matrix(1 0 0 -1 0 949.7782)">
			<stop  offset="0" style="stop-color:#FFF33B"/>
			<stop  offset="0.014" style="stop-color:#FEE72E"/>
			<stop  offset="0.042" style="stop-color:#FED51B"/>
			<stop  offset="0.07" style="stop-color:#FDCA10"/>
			<stop  offset="0.1" style="stop-color:#FDC70C"/>
			<stop  offset="0.4" style="stop-color:#F3903F"/>
			<stop  offset="0.8" style="stop-color:#ED683C"/>
			<stop  offset="1" style="stop-color:#E93E3A"/>
		</linearGradient>
		<path style="fill:url(#SVGID_1_);" d="M694.718,0H271.936c-25.606,0.027-46.357,20.778-46.383,46.383V920.27
			c0.027,25.606,20.778,46.357,46.383,46.383h422.782c25.606-0.027,46.357-20.778,46.383-46.383V46.383
			C741.074,20.778,720.323,0.027,694.718,0z M271.936,32.222h422.782c7.814,0.018,14.144,6.348,14.161,14.161v50.282H257.774V46.383
			C257.792,38.569,264.122,32.24,271.936,32.222z M708.879,128.887v708.879H257.774V128.887H708.879z M694.718,934.432H271.936
			c-7.814-0.018-14.144-6.348-14.161-14.161v-50.282h451.105v50.282C708.861,928.084,702.531,934.414,694.718,934.432z"/>
		
			<linearGradient id="SVGID_2_" gradientUnits="userSpaceOnUse" x1="483.3267" y1="994.5021" x2="483.3267" y2="5.2613" gradientTransform="matrix(1 0 0 -1 0 949.7782)">
			<stop  offset="0" style="stop-color:#FFF33B"/>
			<stop  offset="0.014" style="stop-color:#FEE72E"/>
			<stop  offset="0.042" style="stop-color:#FED51B"/>
			<stop  offset="0.07" style="stop-color:#FDCA10"/>
			<stop  offset="0.1" style="stop-color:#FDC70C"/>
			<stop  offset="0.4" style="stop-color:#F3903F"/>
			<stop  offset="0.8" style="stop-color:#ED683C"/>
			<stop  offset="1" style="stop-color:#E93E3A"/>
		</linearGradient>
		<rect x="434.994" y="48.333" style="fill:url(#SVGID_2_);" width="96.665" height="32.222"/>
		
			<linearGradient id="SVGID_3_" gradientUnits="userSpaceOnUse" x1="676.6573" y1="998.7875" x2="676.6573" y2="-11.0591" gradientTransform="matrix(1 0 0 -1 0 949.7782)">
			<stop  offset="0" style="stop-color:#FFF33B"/>
			<stop  offset="0.014" style="stop-color:#FEE72E"/>
			<stop  offset="0.042" style="stop-color:#FED51B"/>
			<stop  offset="0.07" style="stop-color:#FDCA10"/>
			<stop  offset="0.1" style="stop-color:#FDC70C"/>
			<stop  offset="0.4" style="stop-color:#F3903F"/>
			<stop  offset="0.8" style="stop-color:#ED683C"/>
			<stop  offset="1" style="stop-color:#E93E3A"/>
		</linearGradient>
		<rect x="660.546" y="48.333" style="fill:url(#SVGID_3_);" width="32.222" height="32.222"/>
		
			<linearGradient id="SVGID_4_" gradientUnits="userSpaceOnUse" x1="483.3267" y1="978.3428" x2="483.3267" y2="-21.08" gradientTransform="matrix(1 0 0 -1 0 949.7782)">
			<stop  offset="0" style="stop-color:#FFF33B"/>
			<stop  offset="0.014" style="stop-color:#FEE72E"/>
			<stop  offset="0.042" style="stop-color:#FED51B"/>
			<stop  offset="0.07" style="stop-color:#FDCA10"/>
			<stop  offset="0.1" style="stop-color:#FDC70C"/>
			<stop  offset="0.4" style="stop-color:#F3903F"/>
			<stop  offset="0.8" style="stop-color:#ED683C"/>
			<stop  offset="1" style="stop-color:#E93E3A"/>
		</linearGradient>
		<rect x="451.105" y="886.099" style="fill:url(#SVGID_4_);" width="64.444" height="32.222"/>
	</g>
</g>
<g>
</g>
<g>
</g>
<g>
</g>
<g>
</g>
<g>
</g>
<g>
</g>
<g>
</g>
<g>
</g>
<g>
</g>
<g>
</g>
<g>
</g>
<g>
</g>
<g>
</g>
<g>
</g>
<g>
</g>
</svg>
